<svg width="21" height="82" viewBox="0 0 21 82" fill="none" xmlns="http://www.w3.org/2000/svg">
<path d="M12.6724 0.905121C13.0011 0.144718 13.8841 -0.205204 14.6445 0.123549C15.4049 0.452302 15.7548 1.33524 15.4261 2.09564L14.0492 1.50038L12.6724 0.905121ZM15.4435 81.0534C15.1381 81.8235 14.2662 82.2001 13.4962 81.8947L0.947313 76.9171C0.177253 76.6117 -0.199389 75.7398 0.10606 74.9697C0.411509 74.1997 1.28338 73.823 2.05344 74.1285L13.208 78.553L17.6325 67.3985C17.9379 66.6284 18.8098 66.2518 19.5799 66.5572C20.3499 66.8627 20.7266 67.7345 20.4211 68.5046L15.4435 81.0534ZM14.0492 1.50038L15.4261 2.09564C8.82075 17.3737 5.56153 29.1615 5.54927 40.9054C5.53701 52.649 8.77148 64.5007 15.4262 79.9055L14.0492 80.5004L12.6722 81.0952C5.94343 65.519 2.5364 53.2325 2.54927 40.9022C2.56214 28.5723 5.9947 16.3506 12.6724 0.905121L14.0492 1.50038Z" fill="black"/>
</svg>
