<svg width="21" height="21" viewBox="0 0 21 21" fill="none" xmlns="http://www.w3.org/2000/svg">
<path d="M14.5427 2.61625C14.4411 2.51439 14.3204 2.43358 14.1875 2.37844C14.0546 2.3233 13.9122 2.29492 13.7683 2.29492C13.6244 2.29492 13.482 2.3233 13.3491 2.37844C13.2162 2.43358 13.0955 2.51439 12.9939 2.61625L5.72269 9.8875C5.64157 9.96845 5.57722 10.0646 5.53331 10.1705C5.4894 10.2763 5.4668 10.3898 5.4668 10.5044C5.4668 10.619 5.4894 10.7324 5.53331 10.8383C5.57722 10.9442 5.64157 11.0403 5.72269 11.1213L12.9939 18.3925C13.4227 18.8213 14.1139 18.8213 14.5427 18.3925C14.9714 17.9638 14.9714 17.2725 14.5427 16.8438L8.20769 10.5L14.5514 4.15625C14.9714 3.73625 14.9714 3.03625 14.5427 2.61625Z" fill="white"/>
</svg>
